<svg width="40" height="40" viewBox="0 0 40 40" fill="none" xmlns="http://www.w3.org/2000/svg">
<path d="M18.0867 24.6198L17.4483 26.1581M18.0867 15.3798L17.4483 13.8415M21.9133 24.6198L22.55 26.1598M22.5517 13.8415L21.9133 15.3798M24.62 18.0865L26.1583 17.4481M24.62 21.9131L26.1583 22.5515M29.33 10.8331C29.7135 10.1689 29.9391 9.42543 29.9893 8.66012C30.0395 7.8948 29.9129 7.1282 29.6194 6.41962C29.3259 5.71103 28.8734 5.07946 28.2968 4.57376C27.7201 4.06806 27.0349 3.70179 26.2941 3.50328C25.5533 3.30478 24.7767 3.27936 24.0245 3.42899C23.2723 3.57862 22.5646 3.8993 21.9561 4.3662C21.3476 4.83311 20.8547 5.43373 20.5155 6.12161C20.1764 6.80948 19.9999 7.56617 20 8.33313C20.001 7.22278 19.6324 6.14369 18.9523 5.26602C18.2722 4.38834 17.3192 3.76201 16.2438 3.4858C15.1684 3.20958 14.0316 3.2992 13.0127 3.74051C11.9938 4.18182 11.1508 4.94973 10.6167 5.92313C10.1769 6.72352 9.96481 7.62905 10.0033 8.54146M10.0033 8.54146C9.02357 8.79349 8.11402 9.26518 7.34358 9.92082C6.57314 10.5765 5.96202 11.3988 5.55651 12.3256C5.15099 13.2525 4.96173 14.2594 5.00305 15.2702C5.04436 16.281 5.31518 17.2692 5.79498 18.1598M10.0033 8.54146C10.0373 9.34797 10.266 10.1343 10.67 10.8331M29.9967 8.54146C30.9764 8.79349 31.8859 9.26518 32.6564 9.92082C33.4268 10.5765 34.0379 11.3988 34.4435 12.3256C34.849 13.2525 35.0382 14.2594 34.9969 15.2702C34.9556 16.281 34.6848 17.2692 34.205 18.1598M32.5083 17.1565C33.9403 17.7381 35.1257 18.7991 35.8618 20.1582C36.5979 21.5172 36.8389 23.0898 36.5435 24.6069C36.2482 26.124 35.435 27.4914 34.2429 28.4751C33.0508 29.4588 31.5539 29.9978 30.0083 29.9998M6.71998 29.1381C6.51934 30.6677 6.85535 32.2194 7.67073 33.529C8.48612 34.8385 9.73041 35.8248 11.1915 36.3196C12.6526 36.8144 14.2402 36.7872 15.6835 36.2427C17.1268 35.6981 18.3366 34.6698 19.1066 33.3331C19.4066 32.8148 20.5933 32.8148 20.8933 33.3331C21.6634 34.6695 22.873 35.6976 24.3161 36.2421C25.7592 36.7866 27.3464 36.8139 28.8074 36.3194C30.2683 35.8248 31.5126 34.8389 32.3282 33.5298C33.1437 32.2206 33.4801 30.6692 33.28 29.1398M7.49998 17.1515C6.0648 17.731 4.876 18.7919 4.13747 20.1521C3.39894 21.5123 3.15671 23.0871 3.45233 24.6064C3.74795 26.1257 4.56299 27.4948 5.75767 28.4789C6.95235 29.4629 8.4522 30.0007 9.99998 29.9998M15.38 18.0865L13.8417 17.4481M15.38 21.9131L13.8417 22.5515M25 19.9998C25 22.7612 22.7614 24.9998 20 24.9998C17.2386 24.9998 15 22.7612 15 19.9998C15 17.2384 17.2386 14.9998 20 14.9998C22.7614 14.9998 25 17.2384 25 19.9998Z" stroke="#020617" stroke-width="2" stroke-linecap="round" stroke-linejoin="round"/>
</svg>
