<svg width="40" height="40" viewBox="0 0 40 40" fill="none" xmlns="http://www.w3.org/2000/svg">
<path d="M20 26.6667V35M26.6667 23.3333V35M33.3333 16.6667V35M36.6667 5L22.2567 19.41C22.1793 19.4876 22.0873 19.5492 21.9861 19.5912C21.8848 19.6332 21.7763 19.6548 21.6667 19.6548C21.5571 19.6548 21.4485 19.6332 21.3473 19.5912C21.246 19.5492 21.1541 19.4876 21.0767 19.41L15.59 13.9233C15.4337 13.7671 15.2218 13.6793 15.0008 13.6793C14.7799 13.6793 14.5679 13.7671 14.4117 13.9233L3.33333 25M6.66666 30V35M13.3333 23.3333V35" stroke="#020617" stroke-width="2" stroke-linecap="round" stroke-linejoin="round"/>
</svg>
