<svg width="40" height="40" viewBox="0 0 40 40" fill="none" xmlns="http://www.w3.org/2000/svg">
<path d="M13.3333 25H11.6667C9.89856 25 8.20286 25.7024 6.95262 26.9526C5.70238 28.2029 5 29.8986 5 31.6667V35M26.7517 21.0267C26.8618 20.6889 27.0769 20.3951 27.3658 20.1883C27.6546 19.9814 28.002 19.8722 28.3572 19.8767C28.7124 19.8812 29.057 19.999 29.3405 20.2131C29.624 20.4272 29.8317 20.7262 29.9333 21.0667L31.1617 23.4867C31.2812 23.7219 31.4549 23.9254 31.6684 24.0804C31.882 24.2355 32.1293 24.3376 32.39 24.3783L35.1133 24.805C35.464 24.8064 35.8053 24.9183 36.0887 25.1249C36.3721 25.3315 36.583 25.6222 36.6916 25.9557C36.8002 26.2891 36.8008 26.6483 36.6934 26.9822C36.586 27.316 36.376 27.6074 36.0933 27.815L34.14 29.7617C33.953 29.9479 33.8129 30.1758 33.7311 30.4267C33.6494 30.6776 33.6285 30.9444 33.67 31.205L34.1017 33.8933C34.2204 34.2303 34.2278 34.5965 34.1226 34.9379C34.0174 35.2793 33.8053 35.578 33.5176 35.7897C33.2299 36.0015 32.8817 36.1151 32.5244 36.114C32.1672 36.1128 31.8197 35.9969 31.5333 35.7833L29.0917 34.5333C28.8565 34.4128 28.596 34.35 28.3317 34.35C28.0674 34.35 27.8069 34.4128 27.5717 34.5333L25.13 35.7833C24.8436 35.9951 24.4969 36.1097 24.1407 36.1101C23.7846 36.1105 23.4376 35.9967 23.1508 35.7856C22.8639 35.5744 22.6523 35.2769 22.5469 34.9366C22.4414 34.5964 22.4478 34.2314 22.565 33.895L22.995 31.2067C23.0365 30.9461 23.0156 30.6793 22.9339 30.4284C22.8521 30.1775 22.712 29.9495 22.525 29.7633L20.5983 27.8417C20.3061 27.6392 20.0863 27.3486 19.9709 27.0123C19.8556 26.676 19.8508 26.3116 19.9573 25.9724C20.0638 25.6332 20.276 25.337 20.5628 25.127C20.8497 24.9169 21.1961 24.8041 21.5517 24.805L24.2733 24.3783C24.534 24.3376 24.7813 24.2355 24.9949 24.0804C25.2084 23.9254 25.3821 23.7219 25.5017 23.4867L26.7517 21.0267ZM23.3333 11.6667C23.3333 15.3486 20.3486 18.3333 16.6667 18.3333C12.9848 18.3333 10 15.3486 10 11.6667C10 7.98477 12.9848 5 16.6667 5C20.3486 5 23.3333 7.98477 23.3333 11.6667Z" stroke="#020617" stroke-width="2" stroke-linecap="round" stroke-linejoin="round"/>
</svg>
