<svg width="30" height="30" viewBox="0 0 30 30" fill="none" xmlns="http://www.w3.org/2000/svg">
<path d="M20 26.25V23.75C20 22.4239 19.4732 21.1521 18.5355 20.2145C17.5979 19.2768 16.3261 18.75 15 18.75H7.5C6.17392 18.75 4.90215 19.2768 3.96447 20.2145C3.02678 21.1521 2.5 22.4239 2.5 23.75V26.25M20 3.91C21.0722 4.18796 22.0217 4.81408 22.6996 5.69008C23.3775 6.56608 23.7453 7.64236 23.7453 8.75C23.7453 9.85764 23.3775 10.9339 22.6996 11.8099C22.0217 12.6859 21.0722 13.312 20 13.59M27.5 26.25V23.75C27.4992 22.6422 27.1304 21.566 26.4517 20.6904C25.773 19.8148 24.8227 19.1895 23.75 18.9125M16.25 8.75C16.25 11.5114 14.0114 13.75 11.25 13.75C8.48858 13.75 6.25 11.5114 6.25 8.75C6.25 5.98858 8.48858 3.75 11.25 3.75C14.0114 3.75 16.25 5.98858 16.25 8.75Z" stroke="url(#paint0_linear_108_3003)" stroke-width="2" stroke-linecap="round" stroke-linejoin="round"/>
<defs>
<linearGradient id="paint0_linear_108_3003" x1="2.5" y1="15" x2="27.5" y2="15" gradientUnits="userSpaceOnUse">
<stop stop-color="#0044FF"/>
<stop offset="0.346154" stop-color="#E7417E"/>
<stop offset="0.668269" stop-color="#E27333"/>
<stop offset="1" stop-color="#E54D6A"/>
</linearGradient>
</defs>
</svg>
